<svg width="830" height="265" viewBox="0 0 830 265" fill="none" xmlns="http://www.w3.org/2000/svg">
<g filter="url(#filter0_i_5_5)">
<path d="M61.0359 30.74C49.5159 35.06 43.7559 43.52 43.7559 56.12C43.7559 68.54 53.9259 80.6 74.2659 92.3C91.3659 102.02 103.696 110.84 111.256 118.76C118.996 126.68 122.866 135.14 122.866 144.14C122.866 164.12 116.476 179.24 103.696 189.5C91.0959 199.76 73.3659 204.89 50.5059 204.89C22.6059 204.89 5.9559 198.59 0.555897 185.99C4.3359 179.15 7.3959 170.24 9.7359 159.26L11.0859 153.86C15.5859 152.24 20.4459 151.43 25.6659 151.43C24.2259 155.39 23.5059 159.98 23.5059 165.2C23.5059 174.02 25.8459 180.05 30.5259 183.29H84.5259C95.1459 176.63 100.456 166.91 100.456 154.13C100.456 145.85 97.2159 138.2 90.7359 131.18C84.2559 123.98 74.1759 116.42 60.4959 108.5C46.9959 100.58 37.3659 93.74 31.6059 87.98C25.8459 82.22 22.9659 74.93 22.9659 66.11C22.9659 47.93 29.0859 34.34 41.3259 25.34C53.5659 16.34 69.6759 11.84 89.6559 11.84C99.0159 11.84 107.296 13.46 114.496 16.7C121.876 19.76 126.286 23.54 127.726 28.04C123.946 34.88 120.796 43.79 118.276 54.77L117.196 60.17C112.696 61.79 107.836 62.6 102.616 62.6C104.056 58.64 104.776 54.05 104.776 48.83C104.776 40.01 102.436 33.98 97.7559 30.74H61.0359ZM165.034 200.84C161.614 200.84 158.554 199.58 155.854 197.06C153.154 194.36 151.804 190.22 151.804 184.64C151.804 180.68 152.344 175.19 153.424 168.17C154.504 160.97 155.944 153.14 157.744 144.68C159.544 136.22 161.434 127.85 163.414 119.57C165.574 111.11 167.734 103.55 169.894 96.89C172.054 90.23 173.944 85.28 175.564 82.04C177.004 79.52 178.354 77.9 179.614 77.18C181.054 76.46 182.404 76.1 183.664 76.1C186.184 76.1 188.344 76.91 190.144 78.53C192.124 80.15 193.114 83.3 193.114 87.98C193.114 90.68 192.574 95.18 191.494 101.48C190.594 107.6 189.334 114.8 187.714 123.08C186.274 131.18 184.654 139.55 182.854 148.19C181.234 156.65 179.614 164.75 177.994 172.49C176.374 180.23 175.114 186.71 174.214 191.93C173.494 194.81 172.234 197.06 170.434 198.68C168.814 200.12 167.014 200.84 165.034 200.84ZM191.494 51.53C187.354 51.53 183.394 50.27 179.614 47.75C176.014 45.23 174.214 41.18 174.214 35.6C174.214 30.92 175.294 27.14 177.454 24.26C179.794 21.38 182.494 19.31 185.554 18.05C188.794 16.61 191.584 15.89 193.924 15.89C196.264 15.89 198.874 16.43 201.754 17.51C204.814 18.41 207.424 20.21 209.584 22.91C211.744 25.43 212.824 29.21 212.824 34.25C212.824 37.67 211.654 40.73 209.314 43.43C206.974 45.95 204.094 47.93 200.674 49.37C197.434 50.81 194.374 51.53 191.494 51.53ZM289.019 52.07C298.559 52.07 307.109 53.87 314.669 57.47C322.409 61.07 328.979 66.56 334.379 73.94H335.729L338.969 54.77H357.869V201.92C357.869 215.6 355.529 227.03 350.849 236.21C346.169 245.57 339.059 252.59 329.519 257.27C319.979 261.95 307.829 264.29 293.069 264.29C282.629 264.29 272.999 263.48 264.179 261.86C255.539 260.42 247.799 258.17 240.959 255.11V233.24C245.639 235.58 250.769 237.56 256.349 239.18C261.929 240.98 267.959 242.33 274.439 243.23C280.919 244.13 287.579 244.58 294.419 244.58C306.839 244.58 316.559 240.89 323.579 233.51C330.779 226.31 334.379 216.41 334.379 203.81V198.14C334.379 195.98 334.469 192.92 334.649 188.96C334.829 184.82 335.009 181.94 335.189 180.32H334.109C329.069 187.7 322.769 193.19 315.209 196.79C307.829 200.39 299.189 202.19 289.289 202.19C270.569 202.19 255.899 195.62 245.279 182.48C234.839 169.34 229.619 150.98 229.619 127.4C229.619 111.92 231.959 98.6 236.639 87.44C241.499 76.1 248.339 67.37 257.159 61.25C265.979 55.13 276.599 52.07 289.019 52.07ZM292.259 72.05C284.159 72.05 277.229 74.21 271.469 78.53C265.889 82.85 261.569 89.15 258.509 97.43C255.629 105.71 254.189 115.79 254.189 127.67C254.189 145.49 257.429 159.17 263.909 168.71C270.569 178.07 280.199 182.75 292.799 182.75C300.179 182.75 306.479 181.85 311.699 180.05C316.919 178.07 321.239 175.1 324.659 171.14C328.079 167 330.599 161.78 332.219 155.48C333.839 149.18 334.649 141.71 334.649 133.07V127.4C334.649 114.26 333.119 103.64 330.059 95.54C327.179 87.44 322.589 81.5 316.289 77.72C309.989 73.94 301.979 72.05 292.259 72.05ZM400.323 199.49V76.1H419.223V97.97C423.903 90.41 429.933 84.38 437.313 79.88C444.873 75.38 452.793 73.13 461.073 73.13C471.153 73.13 479.703 77.09 486.723 85.01C493.743 92.75 497.253 105.98 497.253 124.7V199.49H478.353V125.24C478.353 112.28 476.103 103.19 471.603 97.97C467.283 92.75 461.973 90.14 455.673 90.14C450.273 90.14 444.693 91.76 438.933 95C433.353 98.06 428.673 102.47 424.893 108.23C421.113 113.81 419.223 120.56 419.223 128.48V199.49H400.323ZM562.593 54.77V199.49H538.833V54.77H562.593ZM550.983 0.499977C554.583 0.499977 557.733 1.75998 560.433 4.27998C563.313 6.61998 564.753 10.4 564.753 15.62C564.753 20.66 563.313 24.44 560.433 26.96C557.733 29.48 554.583 30.74 550.983 30.74C547.023 30.74 543.693 29.48 540.993 26.96C538.293 24.44 536.943 20.66 536.943 15.62C536.943 10.4 538.293 6.61998 540.993 4.27998C543.693 1.75998 547.023 0.499977 550.983 0.499977ZM680.15 52.0974V82.947H652.201V154.138C652.201 163.719 656.859 168.509 666.176 168.509C667.758 168.509 669.471 168.377 671.317 168.113C673.251 167.849 674.921 167.542 676.327 167.19L682.787 197.776C674.086 200.325 665.648 201.599 657.474 201.599C642.884 201.599 631.547 197.908 623.461 190.525C615.463 183.142 611.464 172.815 611.464 159.544V82.947H591.425V52.0974H611.464V17.0291H652.201V52.0974H680.15ZM769.273 52.07C781.693 52.07 792.313 54.77 801.133 60.17C810.133 65.57 816.973 73.22 821.653 83.12C826.513 92.84 828.943 104.27 828.943 117.41V131.72H729.853C730.213 148.1 734.353 160.61 742.273 169.25C750.373 177.71 761.623 181.94 776.023 181.94C785.203 181.94 793.303 181.13 800.323 179.51C807.523 177.71 814.903 175.19 822.463 171.95V192.74C815.083 195.98 807.793 198.32 800.593 199.76C793.393 201.38 784.843 202.19 774.943 202.19C761.263 202.19 749.113 199.4 738.493 193.82C728.053 188.24 719.863 179.96 713.923 168.98C708.163 157.82 705.283 144.23 705.283 128.21C705.283 112.37 707.893 98.78 713.113 87.44C718.513 76.1 725.983 67.37 735.523 61.25C745.243 55.13 756.493 52.07 769.273 52.07ZM769.003 71.51C757.663 71.51 748.663 75.2 742.003 82.58C735.523 89.78 731.653 99.86 730.393 112.82H804.103C804.103 104.54 802.843 97.34 800.323 91.22C797.803 85.1 793.933 80.33 788.713 76.91C783.673 73.31 777.103 71.51 769.003 71.51Z" fill="#F9F9FB"/>
</g>
<path d="M61.0359 30.74V30.24H60.9452L60.8603 30.2718L61.0359 30.74ZM74.2659 92.3L74.0166 92.7334L74.0188 92.7347L74.2659 92.3ZM111.256 118.76L110.894 119.105L110.898 119.109L111.256 118.76ZM103.696 189.5L103.383 189.11L103.38 189.112L103.696 189.5ZM0.555897 185.99L0.118277 185.748L-5.24521e-06 185.962L0.0963249 186.187L0.555897 185.99ZM9.7359 159.26L9.25083 159.139L9.2487 159.147L9.24688 159.156L9.7359 159.26ZM11.0859 153.86L10.9165 153.39L10.6655 153.48L10.6008 153.739L11.0859 153.86ZM25.6659 151.43L26.1358 151.601L26.3797 150.93H25.6659V151.43ZM30.5259 183.29L30.2413 183.701L30.3697 183.79H30.5259V183.29ZM84.5259 183.29V183.79H84.6697L84.7915 183.714L84.5259 183.29ZM90.7359 131.18L90.3642 131.514L90.3685 131.519L90.7359 131.18ZM60.4959 108.5L60.2429 108.931L60.2454 108.933L60.4959 108.5ZM31.6059 87.98L31.9595 87.6264V87.6264L31.6059 87.98ZM114.496 16.7L114.291 17.1559L114.298 17.159L114.304 17.1618L114.496 16.7ZM127.726 28.04L128.164 28.2818L128.268 28.093L128.202 27.8876L127.726 28.04ZM118.276 54.77L117.788 54.6581L117.786 54.6719L118.276 54.77ZM117.196 60.17L117.365 60.6404L117.631 60.5448L117.686 60.268L117.196 60.17ZM102.616 62.6L102.146 62.4291L101.902 63.1H102.616V62.6ZM97.7559 30.74L98.0405 30.3289L97.9121 30.24H97.7559V30.74ZM61.0359 30.74L60.8603 30.2718C55.0236 32.4606 50.6116 35.7122 47.6626 40.0436C44.7142 44.374 43.2559 49.743 43.2559 56.12H43.7559H44.2559C44.2559 49.897 45.6776 44.736 48.4892 40.6064C51.3002 36.4777 55.5282 33.3394 61.2115 31.2082L61.0359 30.74ZM43.7559 56.12H43.2559C43.2559 68.8333 53.6564 81.0218 74.0166 92.7334L74.2659 92.3L74.5152 91.8666C54.1954 80.1782 44.2559 68.2467 44.2559 56.12H43.7559ZM74.2659 92.3L74.0188 92.7347C91.1044 102.447 103.385 111.238 110.894 119.105L111.256 118.76L111.618 118.415C104.007 110.442 91.6274 101.593 74.513 91.8653L74.2659 92.3ZM111.256 118.76L110.898 119.109C118.569 126.959 122.366 135.299 122.366 144.14H122.866H123.366C123.366 134.981 119.423 126.401 111.613 118.411L111.256 118.76ZM122.866 144.14H122.366C122.366 164.005 116.019 178.966 103.383 189.11L103.696 189.5L104.009 189.89C116.933 179.514 123.366 164.235 123.366 144.14H122.866ZM103.696 189.5L103.38 189.112C90.8995 199.275 73.2969 204.39 50.5059 204.39V204.89V205.39C73.4349 205.39 91.2923 200.245 104.012 189.888L103.696 189.5ZM50.5059 204.89V204.39C36.586 204.39 25.516 202.817 17.2703 199.697C9.03261 196.58 3.64723 191.934 1.01547 185.793L0.555897 185.99L0.0963249 186.187C2.86456 192.646 8.50418 197.45 16.9165 200.633C25.3208 203.813 36.5258 205.39 50.5059 205.39V204.89ZM0.555897 185.99L0.993518 186.232C4.80523 179.334 7.87873 170.373 10.2249 159.364L9.7359 159.26L9.24688 159.156C6.91307 170.107 3.86657 178.966 0.118277 185.748L0.555897 185.99ZM9.7359 159.26L10.221 159.381L11.571 153.981L11.0859 153.86L10.6008 153.739L9.25083 159.139L9.7359 159.26ZM11.0859 153.86L11.2553 154.33C15.6962 152.732 20.4984 151.93 25.6659 151.93V151.43V150.93C20.3934 150.93 15.4756 151.748 10.9165 153.39L11.0859 153.86ZM25.6659 151.43L25.196 151.259C23.732 155.285 23.0059 159.935 23.0059 165.2H23.5059H24.0059C24.0059 160.025 24.7198 155.495 26.1358 151.601L25.6659 151.43ZM23.5059 165.2H23.0059C23.0059 174.091 25.3644 180.325 30.2413 183.701L30.5259 183.29L30.8105 182.879C26.3274 179.775 24.0059 173.949 24.0059 165.2H23.5059ZM30.5259 183.29V183.79H84.5259V183.29V182.79H30.5259V183.29ZM84.5259 183.29L84.7915 183.714C95.5608 176.96 100.956 167.078 100.956 154.13H100.456H99.9559C99.9559 166.742 94.731 176.3 84.2603 182.866L84.5259 183.29ZM100.456 154.13H100.956C100.956 145.705 97.6545 137.938 91.1033 130.841L90.7359 131.18L90.3685 131.519C96.7773 138.462 99.9559 145.995 99.9559 154.13H100.456ZM90.7359 131.18L91.1075 130.845C84.5775 123.59 74.4469 115.999 60.7464 108.067L60.4959 108.5L60.2454 108.933C73.9049 116.841 83.9343 124.37 90.3643 131.514L90.7359 131.18ZM60.4959 108.5L60.7489 108.069C47.2585 100.154 37.6732 93.3402 31.9595 87.6264L31.6059 87.98L31.2523 88.3335C37.0586 94.1398 46.7333 101.006 60.2429 108.931L60.4959 108.5ZM31.6059 87.98L31.9595 87.6264C26.3015 81.9684 23.4659 74.8095 23.4659 66.11H22.9659H22.4659C22.4659 75.0505 25.3903 82.4715 31.2523 88.3335L31.6059 87.98ZM22.9659 66.11H23.4659C23.4659 48.0537 29.5362 34.6295 41.6221 25.7428L41.3259 25.34L41.0297 24.9371C28.6356 34.0505 22.4659 47.8062 22.4659 66.11H22.9659ZM41.3259 25.34L41.6221 25.7428C53.7527 16.8232 69.749 12.34 89.6559 12.34V11.84V11.34C69.6028 11.34 53.3791 15.8568 41.0297 24.9371L41.3259 25.34ZM89.6559 11.84V12.34C98.9581 12.34 107.166 13.9498 114.291 17.1559L114.496 16.7L114.701 16.244C107.426 12.9701 99.0737 11.34 89.6559 11.34V11.84ZM114.496 16.7L114.304 17.1618C121.639 20.2031 125.878 23.9045 127.25 28.1924L127.726 28.04L128.202 27.8876C126.694 23.1755 122.113 19.3169 114.687 16.2381L114.496 16.7ZM127.726 28.04L127.288 27.7981C123.478 34.6926 120.315 43.6509 117.789 54.6581L118.276 54.77L118.763 54.8818C121.277 43.9291 124.414 35.0674 128.164 28.2818L127.726 28.04ZM118.276 54.77L117.786 54.6719L116.706 60.0719L117.196 60.17L117.686 60.268L118.766 54.868L118.276 54.77ZM117.196 60.17L117.027 59.6995C112.586 61.2983 107.783 62.1 102.616 62.1V62.6V63.1C107.888 63.1 112.806 62.2817 117.365 60.6404L117.196 60.17ZM102.616 62.6L103.086 62.7709C104.55 58.7448 105.276 54.0949 105.276 48.83H104.776H104.276C104.276 54.0051 103.562 58.5352 102.146 62.4291L102.616 62.6ZM104.776 48.83H105.276C105.276 39.9394 102.917 33.7052 98.0405 30.3289L97.7559 30.74L97.4713 31.1511C101.954 34.2548 104.276 40.0805 104.276 48.83H104.776ZM97.7559 30.74V30.24H61.0359V30.74V31.24H97.7559V30.74ZM155.854 197.06L155.501 197.414L155.507 197.42L155.513 197.426L155.854 197.06ZM153.424 168.17L153.919 168.246L153.919 168.244L153.424 168.17ZM157.744 144.68L158.233 144.784L157.744 144.68ZM163.414 119.57L162.93 119.446L162.928 119.454L163.414 119.57ZM175.564 82.04L175.13 81.7919L175.123 81.804L175.117 81.8164L175.564 82.04ZM179.614 77.18L179.391 76.7328L179.378 76.739L179.366 76.7459L179.614 77.18ZM190.144 78.53L189.81 78.9016L189.819 78.9095L189.828 78.917L190.144 78.53ZM191.494 101.48L191.001 101.395L191 101.407L191.494 101.48ZM187.714 123.08L187.224 122.984L187.222 122.992L187.714 123.08ZM182.854 148.19L182.365 148.088L182.363 148.096L182.854 148.19ZM177.994 172.49L177.505 172.388V172.388L177.994 172.49ZM174.214 191.93L174.699 192.051L174.704 192.033L174.707 192.015L174.214 191.93ZM170.434 198.68L170.767 199.054L170.769 199.052L170.434 198.68ZM179.614 47.75L179.328 48.1597L179.337 48.166L179.614 47.75ZM177.454 24.26L177.066 23.9447L177.06 23.9522L177.054 23.96L177.454 24.26ZM185.554 18.05L185.745 18.5125L185.757 18.5069L185.554 18.05ZM201.754 17.51L201.579 17.9781L201.596 17.9845L201.613 17.9897L201.754 17.51ZM209.584 22.91L209.194 23.2223L209.199 23.2289L209.205 23.2354L209.584 22.91ZM209.314 43.43L209.681 43.7702L209.687 43.7639L209.692 43.7574L209.314 43.43ZM200.674 49.37L200.48 48.9091L200.471 48.9131L200.674 49.37ZM165.034 200.84V200.34C161.752 200.34 158.811 199.136 156.196 196.694L155.854 197.06L155.513 197.426C158.298 200.024 161.477 201.34 165.034 201.34V200.84ZM155.854 197.06L156.208 196.706C153.638 194.136 152.304 190.148 152.304 184.64H151.804H151.304C151.304 190.292 152.671 194.584 155.501 197.414L155.854 197.06ZM151.804 184.64H152.304C152.304 180.718 152.84 175.257 153.919 168.246L153.424 168.17L152.93 168.094C151.849 175.123 151.304 180.642 151.304 184.64H151.804ZM153.424 168.17L153.919 168.244C154.997 161.056 156.435 153.236 158.233 144.784L157.744 144.68L157.255 144.576C155.454 153.044 154.012 160.884 152.93 168.096L153.424 168.17ZM157.744 144.68L158.233 144.784C160.033 136.328 161.922 127.962 163.901 119.686L163.414 119.57L162.928 119.454C160.947 127.738 159.056 136.112 157.255 144.576L157.744 144.68ZM163.414 119.57L163.899 119.694C166.057 111.242 168.214 103.692 170.37 97.0442L169.894 96.89L169.419 96.7357C167.255 103.408 165.092 110.978 162.93 119.446L163.414 119.57ZM169.894 96.89L170.37 97.0442C172.528 90.3904 174.409 85.4692 176.012 82.2636L175.564 82.04L175.117 81.8164C173.48 85.0908 171.581 90.0695 169.419 96.7357L169.894 96.89ZM175.564 82.04L175.999 82.2881C177.43 79.7822 178.725 78.2639 179.862 77.6141L179.614 77.18L179.366 76.7459C177.984 77.536 176.578 79.2578 175.13 81.7919L175.564 82.04ZM179.614 77.18L179.838 77.6272C181.227 76.9326 182.501 76.6 183.664 76.6V76.1V75.6C182.308 75.6 180.882 75.9874 179.391 76.7328L179.614 77.18ZM183.664 76.1V76.6C186.066 76.6 188.106 77.3679 189.81 78.9016L190.144 78.53L190.479 78.1583C188.583 76.4521 186.302 75.6 183.664 75.6V76.1ZM190.144 78.53L189.828 78.917C191.625 80.3871 192.614 83.3336 192.614 87.98H193.114H193.614C193.614 83.2663 192.624 79.9129 190.461 78.143L190.144 78.53ZM193.114 87.98H192.614C192.614 90.6333 192.082 95.096 191.002 101.396L191.494 101.48L191.987 101.564C193.067 95.264 193.614 90.7267 193.614 87.98H193.114ZM191.494 101.48L191 101.407C190.101 107.517 188.843 114.709 187.224 122.984L187.714 123.08L188.205 123.176C189.826 114.891 191.088 107.683 191.989 101.553L191.494 101.48ZM187.714 123.08L187.222 122.992C185.783 131.087 184.164 139.452 182.365 148.088L182.854 148.19L183.344 148.292C185.145 139.647 186.766 131.273 188.207 123.167L187.714 123.08ZM182.854 148.19L182.363 148.096C180.744 156.553 179.124 164.651 177.505 172.388L177.994 172.49L178.484 172.592C180.104 164.849 181.725 156.747 183.345 148.284L182.854 148.19ZM177.994 172.49L177.505 172.388C175.884 180.131 174.623 186.617 173.722 191.845L174.214 191.93L174.707 192.015C175.606 186.803 176.865 180.329 178.484 172.592L177.994 172.49ZM174.214 191.93L173.729 191.809C173.028 194.614 171.811 196.769 170.1 198.308L170.434 198.68L170.769 199.052C172.658 197.351 173.961 195.006 174.699 192.051L174.214 191.93ZM170.434 198.68L170.102 198.306C168.564 199.673 166.88 200.34 165.034 200.34V200.84V201.34C167.149 201.34 169.064 200.567 170.767 199.054L170.434 198.68ZM191.494 51.53V51.03C187.463 51.03 183.598 49.8047 179.892 47.334L179.614 47.75L179.337 48.166C183.191 50.7352 187.246 52.03 191.494 52.03V51.53ZM179.614 47.75L179.901 47.3404C176.471 44.939 174.714 41.066 174.714 35.6H174.214H173.714C173.714 41.2939 175.558 45.521 179.328 48.1596L179.614 47.75ZM174.214 35.6H174.714C174.714 30.9957 175.776 27.3306 177.854 24.56L177.454 24.26L177.054 23.96C174.812 26.9494 173.714 30.8443 173.714 35.6H174.214ZM177.454 24.26L177.842 24.5753C180.136 21.752 182.771 19.7369 185.745 18.5123L185.554 18.05L185.364 17.5876C182.218 18.8831 179.452 21.0079 177.066 23.9447L177.454 24.26ZM185.554 18.05L185.757 18.5069C188.963 17.082 191.681 16.39 193.924 16.39V15.89V15.39C191.488 15.39 188.625 16.1379 185.351 17.5931L185.554 18.05ZM193.924 15.89V16.39C196.189 16.39 198.738 16.9129 201.579 17.9781L201.754 17.51L201.93 17.0418C199.011 15.947 196.34 15.39 193.924 15.39V15.89ZM201.754 17.51L201.613 17.9897C204.567 18.8583 207.092 20.5953 209.194 23.2223L209.584 22.91L209.975 22.5976C207.757 19.8247 205.062 17.9617 201.895 17.0303L201.754 17.51ZM209.584 22.91L209.205 23.2354C211.256 25.628 212.324 29.2698 212.324 34.25H212.824H213.324C213.324 29.1501 212.233 25.232 209.964 22.5846L209.584 22.91ZM212.824 34.25H212.324C212.324 37.5439 211.202 40.489 208.937 43.1025L209.314 43.43L209.692 43.7574C212.107 40.971 213.324 37.796 213.324 34.25H212.824ZM209.314 43.43L208.948 43.0898C206.66 45.5538 203.84 47.4945 200.48 48.9092L200.674 49.37L200.868 49.8308C204.349 48.3655 207.289 46.3462 209.681 43.7702L209.314 43.43ZM200.674 49.37L200.471 48.9131C197.281 50.3311 194.29 51.03 191.494 51.03V51.53V52.03C194.459 52.03 197.588 51.2889 200.877 49.8269L200.674 49.37ZM314.669 57.47L314.454 57.9214L314.458 57.9233L314.669 57.47ZM334.379 73.94L333.976 74.2352L334.126 74.44H334.379V73.94ZM335.729 73.94V74.44H336.152L336.222 74.0233L335.729 73.94ZM338.969 54.77V54.27H338.547L338.476 54.6867L338.969 54.77ZM357.869 54.77H358.369V54.27H357.869V54.77ZM350.849 236.21L350.404 235.983L350.402 235.986L350.849 236.21ZM329.519 257.27L329.739 257.719V257.719L329.519 257.27ZM264.179 261.86L264.27 261.368L264.261 261.367L264.179 261.86ZM240.959 255.11H240.459V255.434L240.755 255.566L240.959 255.11ZM240.959 233.24L241.183 232.793L240.459 232.431V233.24H240.959ZM256.349 239.18L256.503 238.704L256.496 238.702L256.489 238.7L256.349 239.18ZM274.439 243.23L274.508 242.735V242.735L274.439 243.23ZM323.579 233.51L323.226 233.156L323.217 233.165L323.579 233.51ZM334.649 188.96L335.149 188.983L335.149 188.982L334.649 188.96ZM335.189 180.32L335.686 180.375L335.748 179.82H335.189V180.32ZM334.109 180.32V179.82H333.845L333.696 180.038L334.109 180.32ZM315.209 196.79L314.994 196.339L314.99 196.341L315.209 196.79ZM245.279 182.48L244.888 182.791L244.89 182.794L245.279 182.48ZM236.639 87.44L236.18 87.243L236.178 87.2466L236.639 87.44ZM257.159 61.25L256.874 60.8392V60.8392L257.159 61.25ZM271.469 78.53L271.169 78.1299L271.163 78.1346L271.469 78.53ZM258.509 97.43L258.04 97.2566L258.037 97.2657L258.509 97.43ZM263.909 168.71L263.496 168.991L263.502 169L263.909 168.71ZM311.699 180.05L311.862 180.523L311.869 180.52L311.877 180.517L311.699 180.05ZM324.659 171.14L325.038 171.467L325.045 171.458L324.659 171.14ZM332.219 155.48L332.704 155.605V155.605L332.219 155.48ZM330.059 95.54L329.588 95.7075L329.592 95.7167L330.059 95.54ZM316.289 77.72L316.547 77.2912V77.2912L316.289 77.72ZM289.019 52.07V52.57C298.495 52.57 306.97 54.3576 314.454 57.9214L314.669 57.47L314.884 57.0186C307.248 53.3824 298.623 51.57 289.019 51.57V52.07ZM314.669 57.47L314.458 57.9233C322.116 61.4852 328.622 66.9184 333.976 74.2352L334.379 73.94L334.783 73.6447C329.337 66.2016 322.702 60.6547 314.88 57.0166L314.669 57.47ZM334.379 73.94V74.44H335.729V73.94V73.44H334.379V73.94ZM335.729 73.94L336.222 74.0233L339.462 54.8533L338.969 54.77L338.476 54.6867L335.236 73.8567L335.729 73.94ZM338.969 54.77V55.27H357.869V54.77V54.27H338.969V54.77ZM357.869 54.77H357.369V201.92H357.869H358.369V54.77H357.869ZM357.869 201.92H357.369C357.369 215.546 355.038 226.892 350.404 235.983L350.849 236.21L351.295 236.437C356.02 227.168 358.369 215.654 358.369 201.92H357.869ZM350.849 236.21L350.402 235.986C345.772 245.247 338.742 252.189 329.299 256.821L329.519 257.27L329.739 257.719C339.376 252.991 346.567 245.893 351.296 236.434L350.849 236.21ZM329.519 257.27L329.299 256.821C319.849 261.457 307.781 263.79 293.069 263.79V264.29V264.79C307.878 264.79 320.11 262.443 329.739 257.719L329.519 257.27ZM293.069 264.29V263.79C282.655 263.79 273.055 262.982 264.27 261.368L264.179 261.86L264.089 262.352C272.943 263.978 282.604 264.79 293.069 264.79V264.29ZM264.179 261.86L264.261 261.367C255.657 259.933 247.959 257.694 241.163 254.654L240.959 255.11L240.755 255.566C247.64 258.646 255.422 260.907 264.097 262.353L264.179 261.86ZM240.959 255.11H241.459V233.24H240.959H240.459V255.11H240.959ZM240.959 233.24L240.736 233.687C245.445 236.042 250.604 238.033 256.21 239.66L256.349 239.18L256.489 238.7C250.935 237.087 245.833 235.118 241.183 232.793L240.959 233.24ZM256.349 239.18L256.196 239.656C261.806 241.466 267.865 242.822 274.37 243.725L274.439 243.23L274.508 242.735C268.054 241.838 262.052 240.494 256.503 238.704L256.349 239.18ZM274.439 243.23L274.37 243.725C280.874 244.629 287.557 245.08 294.419 245.08V244.58V244.08C287.601 244.08 280.964 243.631 274.508 242.735L274.439 243.23ZM294.419 244.58V245.08C306.944 245.08 316.807 241.355 323.942 233.855L323.579 233.51L323.217 233.165C316.311 240.425 306.735 244.08 294.419 244.08V244.58ZM323.579 233.51L323.933 233.864C331.248 226.549 334.879 216.509 334.879 203.81H334.379H333.879C333.879 216.311 330.311 226.071 323.226 233.156L323.579 233.51ZM334.379 203.81H334.879V198.14H334.379H333.879V203.81H334.379ZM334.379 198.14H334.879C334.879 195.991 334.969 192.94 335.149 188.983L334.649 188.96L334.15 188.937C333.97 192.9 333.879 195.969 333.879 198.14H334.379ZM334.649 188.96L335.149 188.982C335.329 184.841 335.508 181.976 335.686 180.375L335.189 180.32L334.692 180.265C334.51 181.904 334.33 184.799 334.15 188.938L334.649 188.96ZM335.189 180.32V179.82H334.109V180.32V180.82H335.189V180.32ZM334.109 180.32L333.696 180.038C328.703 187.35 322.469 192.779 314.994 196.339L315.209 196.79L315.424 197.241C323.069 193.601 329.436 188.05 334.522 180.602L334.109 180.32ZM315.209 196.79L314.99 196.341C307.691 199.901 299.129 201.69 289.289 201.69V202.19V202.69C299.25 202.69 307.968 200.879 315.428 197.239L315.209 196.79ZM289.289 202.19V201.69C270.702 201.69 256.182 195.175 245.668 182.166L245.279 182.48L244.89 182.794C255.616 196.065 270.437 202.69 289.289 202.69V202.19ZM245.279 182.48L245.671 182.169C235.325 169.147 230.119 150.912 230.119 127.4H229.619H229.119C229.119 151.048 234.354 169.533 244.888 182.791L245.279 182.48ZM229.619 127.4H230.119C230.119 111.969 232.452 98.7176 237.1 87.6333L236.639 87.44L236.178 87.2466C231.466 98.4824 229.119 111.871 229.119 127.4H229.619ZM236.639 87.44L237.099 87.6369C241.928 76.37 248.712 67.7197 257.444 61.6608L257.159 61.25L256.874 60.8392C247.966 67.0203 241.071 75.8299 236.18 87.243L236.639 87.44ZM257.159 61.25L257.444 61.6608C266.168 55.6076 276.685 52.57 289.019 52.57V52.07V51.57C276.514 51.57 265.791 54.6524 256.874 60.8392L257.159 61.25ZM292.259 72.05V71.55C284.065 71.55 277.027 73.737 271.169 78.13L271.469 78.53L271.769 78.93C277.432 74.6829 284.253 72.55 292.259 72.55V72.05ZM271.469 78.53L271.163 78.1346C265.493 82.5247 261.125 88.9108 258.04 97.2567L258.509 97.43L258.978 97.6033C262.014 89.3892 266.286 83.1752 271.775 78.9254L271.469 78.53ZM258.509 97.43L258.037 97.2657C255.133 105.614 253.689 115.753 253.689 127.67H254.189H254.689C254.689 115.827 256.125 105.806 258.982 97.5942L258.509 97.43ZM254.189 127.67H253.689C253.689 145.539 256.936 159.334 263.496 168.991L263.909 168.71L264.323 168.429C257.922 159.006 254.689 145.441 254.689 127.67H254.189ZM263.909 168.71L263.502 169C270.266 178.506 280.056 183.25 292.799 183.25V182.75V182.25C280.343 182.25 270.873 177.634 264.317 168.42L263.909 168.71ZM292.799 182.75V183.25C300.217 183.25 306.576 182.346 311.862 180.523L311.699 180.05L311.536 179.577C306.383 181.354 300.141 182.25 292.799 182.25V182.75ZM311.699 180.05L311.877 180.517C317.169 178.51 321.56 175.494 325.038 171.467L324.659 171.14L324.281 170.813C320.919 174.706 316.67 177.63 311.522 179.582L311.699 180.05ZM324.659 171.14L325.045 171.458C328.52 167.251 331.069 161.961 332.704 155.605L332.219 155.48L331.735 155.355C330.13 161.599 327.638 166.749 324.274 170.822L324.659 171.14ZM332.219 155.48L332.704 155.605C334.337 149.253 335.149 141.739 335.149 133.07H334.649H334.149C334.149 141.681 333.342 149.107 331.735 155.355L332.219 155.48ZM334.649 133.07H335.149V127.4H334.649H334.149V133.07H334.649ZM334.649 127.4H335.149C335.149 114.228 333.616 103.541 330.527 95.3633L330.059 95.54L329.592 95.7167C332.622 103.739 334.149 114.292 334.149 127.4H334.649ZM330.059 95.54L330.53 95.3725C327.618 87.1827 322.962 81.1407 316.547 77.2912L316.289 77.72L316.032 78.1487C322.216 81.8592 326.74 87.6973 329.588 95.7075L330.059 95.54ZM316.289 77.72L316.547 77.2912C310.148 73.4519 302.041 71.55 292.259 71.55V72.05V72.55C301.917 72.55 309.831 74.4281 316.032 78.1487L316.289 77.72ZM400.323 199.49H399.823V199.99H400.323V199.49ZM400.323 76.1V75.6H399.823V76.1H400.323ZM419.223 76.1H419.723V75.6H419.223V76.1ZM419.223 97.97H418.723V99.7276L419.648 98.2332L419.223 97.97ZM437.313 79.88L437.057 79.4503L437.052 79.4531L437.313 79.88ZM486.723 85.01L486.348 85.3417L486.352 85.3459L486.723 85.01ZM497.253 199.49V199.99H497.753V199.49H497.253ZM478.353 199.49H477.853V199.99H478.353V199.49ZM471.603 97.97L471.217 98.2888L471.224 98.2965L471.603 97.97ZM438.933 95L439.173 95.4384L439.178 95.4358L438.933 95ZM424.893 108.23L425.307 108.51L425.311 108.504L424.893 108.23ZM419.223 199.49V199.99H419.723V199.49H419.223ZM400.323 199.49H400.823V76.1H400.323H399.823V199.49H400.323ZM400.323 76.1V76.6H419.223V76.1V75.6H400.323V76.1ZM419.223 76.1H418.723V97.97H419.223H419.723V76.1H419.223ZM419.223 97.97L419.648 98.2332C424.288 90.7379 430.262 84.7648 437.573 80.3069L437.313 79.88L437.052 79.4531C429.603 83.9952 423.518 90.082 418.797 97.7068L419.223 97.97ZM437.313 79.88L437.568 80.3096C445.056 75.8527 452.888 73.63 461.073 73.63V73.13V72.63C452.697 72.63 444.689 74.9073 437.057 79.4503L437.313 79.88ZM461.073 73.13V73.63C471.002 73.63 479.418 77.5226 486.348 85.3416L486.723 85.01L487.097 84.6783C479.987 76.6573 471.304 72.63 461.073 72.63V73.13ZM486.723 85.01L486.352 85.3459C493.244 92.9445 496.753 106.015 496.753 124.7H497.253H497.753C497.753 105.945 494.241 92.5555 487.093 84.6741L486.723 85.01ZM497.253 124.7H496.753V199.49H497.253H497.753V124.7H497.253ZM497.253 199.49V198.99H478.353V199.49V199.99H497.253V199.49ZM478.353 199.49H478.853V125.24H478.353H477.853V199.49H478.353ZM478.353 125.24H478.853C478.853 112.253 476.604 103.006 471.981 97.6435L471.603 97.97L471.224 98.2965C475.601 103.374 477.853 112.307 477.853 125.24H478.353ZM471.603 97.97L471.988 97.6512C467.581 92.3263 462.134 89.64 455.673 89.64V90.14V90.64C461.811 90.64 466.984 93.1737 471.217 98.2888L471.603 97.97ZM455.673 90.14V89.64C450.169 89.64 444.506 91.2914 438.687 94.5642L438.933 95L439.178 95.4358C444.879 92.2285 450.376 90.64 455.673 90.64V90.14ZM438.933 95L438.692 94.5616C433.035 97.6641 428.296 102.133 424.475 107.956L424.893 108.23L425.311 108.504C429.049 102.807 433.671 98.4559 439.173 95.4384L438.933 95ZM424.893 108.23L424.479 107.95C420.633 113.626 418.723 120.478 418.723 128.48H419.223H419.723C419.723 120.642 421.592 113.994 425.306 108.51L424.893 108.23ZM419.223 128.48H418.723V199.49H419.223H419.723V128.48H419.223ZM419.223 199.49V198.99H400.323V199.49V199.99H419.223V199.49ZM562.593 54.77H563.093V54.27H562.593V54.77ZM562.593 199.49V199.99H563.093V199.49H562.593ZM538.833 199.49H538.333V199.99H538.833V199.49ZM538.833 54.77V54.27H538.333V54.77H538.833ZM560.433 4.27998L560.091 4.64551L560.104 4.65721L560.117 4.66803L560.433 4.27998ZM560.433 26.96L560.103 26.5837L560.097 26.589L560.091 26.5945L560.433 26.96ZM540.993 26.96L541.334 26.5945V26.5945L540.993 26.96ZM540.993 4.27998L541.32 4.65782L541.327 4.65179L541.334 4.64551L540.993 4.27998ZM562.593 54.77H562.093V199.49H562.593H563.093V54.77H562.593ZM562.593 199.49V198.99H538.833V199.49V199.99H562.593V199.49ZM538.833 199.49H539.333V54.77H538.833H538.333V199.49H538.833ZM538.833 54.77V55.27H562.593V54.77V54.27H538.833V54.77ZM550.983 0.499985V0.999985C554.452 0.999985 557.481 2.20944 560.091 4.64551L560.433 4.27998L560.774 3.91444C557.984 1.31052 554.713 -1.52588e-05 550.983 -1.52588e-05V0.499985ZM560.433 4.27998L560.117 4.66803C562.838 6.87891 564.253 10.4864 564.253 15.62H564.753H565.253C565.253 10.3136 563.787 6.36105 560.748 3.89192L560.433 4.27998ZM564.753 15.62H564.253C564.253 20.5643 562.843 24.1865 560.103 26.5837L560.433 26.96L560.762 27.3363C563.782 24.6935 565.253 20.7557 565.253 15.62H564.753ZM560.433 26.96L560.091 26.5945C557.481 29.0305 554.452 30.24 550.983 30.24V30.74V31.24C554.713 31.24 557.984 29.9294 560.774 27.3255L560.433 26.96ZM550.983 30.74V30.24C547.139 30.24 543.934 29.0215 541.334 26.5945L540.993 26.96L540.651 27.3255C543.451 29.9385 546.906 31.24 550.983 31.24V30.74ZM540.993 26.96L541.334 26.5945C538.768 24.1996 537.443 20.5737 537.443 15.62H536.943H536.443C536.443 20.7462 537.817 24.6803 540.651 27.3255L540.993 26.96ZM536.943 15.62H537.443C537.443 10.4767 538.772 6.86577 541.32 4.65782L540.993 4.27998L540.665 3.90213C537.813 6.37419 536.443 10.3233 536.443 15.62H536.943ZM540.993 4.27998L541.334 4.64551C543.934 2.21852 547.139 0.999985 550.983 0.999985V0.499985V-1.52588e-05C546.906 -1.52588e-05 543.451 1.30144 540.651 3.91444L540.993 4.27998ZM680.15 52.0974H680.65V51.5974H680.15V52.0974ZM680.15 82.947V83.447H680.65V82.947H680.15ZM652.201 82.947V82.447H651.701V82.947H652.201ZM671.317 168.113L671.25 167.618L671.246 167.618L671.317 168.113ZM676.327 167.19L676.816 167.087L676.709 166.579L676.206 166.705L676.327 167.19ZM682.787 197.776L682.927 198.256L683.372 198.126L683.276 197.673L682.787 197.776ZM623.461 190.525L623.121 190.893L623.124 190.894L623.461 190.525ZM611.464 82.947H611.964V82.447H611.464V82.947ZM591.425 82.947H590.925V83.447H591.425V82.947ZM591.425 52.0974V51.5974H590.925V52.0974H591.425ZM611.464 52.0974V52.5974H611.964V52.0974H611.464ZM611.464 17.0291V16.5291H610.964V17.0291H611.464ZM652.201 17.0291H652.701V16.5291H652.201V17.0291ZM652.201 52.0974H651.701V52.5974H652.201V52.0974ZM680.15 52.0974H679.65V82.947H680.15H680.65V52.0974H680.15ZM680.15 82.947V82.447H652.201V82.947V83.447H680.15V82.947ZM652.201 82.947H651.701V154.138H652.201H652.701V82.947H652.201ZM652.201 154.138H651.701C651.701 159.002 652.883 162.742 655.336 165.265C657.791 167.789 661.437 169.009 666.176 169.009V168.509V168.009C661.598 168.009 658.256 166.833 656.053 164.567C653.848 162.3 652.701 158.855 652.701 154.138H652.201ZM666.176 168.509V169.009C667.785 169.009 669.523 168.874 671.388 168.608L671.317 168.113L671.246 167.618C669.42 167.879 667.73 168.009 666.176 168.009V168.509ZM671.317 168.113L671.385 168.608C673.331 168.343 675.019 168.032 676.448 167.675L676.327 167.19L676.206 166.705C674.822 167.051 673.171 167.356 671.25 167.618L671.317 168.113ZM676.327 167.19L675.838 167.294L682.298 197.879L682.787 197.776L683.276 197.673L676.816 167.087L676.327 167.19ZM682.787 197.776L682.646 197.296C673.986 199.833 665.596 201.099 657.474 201.099V201.599V202.099C665.701 202.099 674.186 200.817 682.927 198.256L682.787 197.776ZM657.474 201.599V201.099C642.967 201.099 631.765 197.43 623.798 190.156L623.461 190.525L623.124 190.894C631.329 198.386 642.802 202.099 657.474 202.099V201.599ZM623.461 190.525L623.8 190.158C615.926 182.89 611.964 172.709 611.964 159.544H611.464H610.964C610.964 172.922 614.999 183.395 623.122 190.893L623.461 190.525ZM611.464 159.544H611.964V82.947H611.464H610.964V159.544H611.464ZM611.464 82.947V82.447H591.425V82.947V83.447H611.464V82.947ZM591.425 82.947H591.925V52.0974H591.425H590.925V82.947H591.425ZM591.425 52.0974V52.5974H611.464V52.0974V51.5974H591.425V52.0974ZM611.464 52.0974H611.964V17.0291H611.464H610.964V52.0974H611.464ZM611.464 17.0291V17.5291H652.201V17.0291V16.5291H611.464V17.0291ZM652.201 17.0291H651.701V52.0974H652.201H652.701V17.0291H652.201ZM652.201 52.0974V52.5974H680.15V52.0974V51.5974H652.201V52.0974ZM801.133 60.17L800.872 60.5964L800.876 60.5987L801.133 60.17ZM821.653 83.12L821.201 83.3337L821.206 83.3436L821.653 83.12ZM828.943 131.72V132.22H829.443V131.72H828.943ZM729.853 131.72V131.22H729.342L729.353 131.731L729.853 131.72ZM742.273 169.25L741.905 169.588L741.912 169.596L742.273 169.25ZM800.323 179.51L800.436 179.997L800.445 179.995L800.323 179.51ZM822.463 171.95H822.963V171.192L822.266 171.49L822.463 171.95ZM822.463 192.74L822.664 193.198L822.963 193.067V192.74H822.463ZM800.593 199.76L800.495 199.27L800.484 199.272L800.593 199.76ZM738.493 193.82L738.258 194.261L738.261 194.263L738.493 193.82ZM713.923 168.98L713.479 169.209L713.484 169.218L713.923 168.98ZM713.113 87.44L712.662 87.225L712.659 87.2309L713.113 87.44ZM735.523 61.25L735.257 60.8269L735.253 60.8291L735.523 61.25ZM742.003 82.58L741.632 82.245L741.632 82.2455L742.003 82.58ZM730.393 112.82L729.896 112.772L729.842 113.32H730.393V112.82ZM804.103 112.82V113.32H804.603V112.82H804.103ZM800.323 91.22L799.861 91.4104V91.4104L800.323 91.22ZM788.713 76.91L788.423 77.3168L788.431 77.3227L788.439 77.3282L788.713 76.91ZM769.273 52.07V52.57C781.62 52.57 792.145 55.2534 800.872 60.5964L801.133 60.17L801.394 59.7436C792.481 54.2866 781.767 51.57 769.273 51.57V52.07ZM801.133 60.17L800.876 60.5987C809.788 65.9456 816.562 73.519 821.201 83.3337L821.653 83.12L822.105 82.9063C817.385 72.921 810.479 65.1944 801.391 59.7412L801.133 60.17ZM821.653 83.12L821.206 83.3436C826.025 92.9811 828.443 104.332 828.443 117.41H828.943H829.443C829.443 104.208 827.002 92.6989 822.101 82.8964L821.653 83.12ZM828.943 117.41H828.443V131.72H828.943H829.443V117.41H828.943ZM828.943 131.72V131.22H729.853V131.72V132.22H828.943V131.72ZM729.853 131.72L729.353 131.731C729.715 148.184 733.875 160.828 741.905 169.588L742.273 169.25L742.642 168.912C734.831 160.392 730.712 148.016 730.353 131.709L729.853 131.72ZM742.273 169.25L741.912 169.596C750.127 178.176 761.52 182.44 776.023 182.44V181.94V181.44C761.726 181.44 750.619 177.244 742.634 168.904L742.273 169.25ZM776.023 181.94V182.44C785.231 182.44 793.37 181.628 800.436 179.997L800.323 179.51L800.211 179.023C793.236 180.632 785.175 181.44 776.023 181.44V181.94ZM800.323 179.51L800.445 179.995C807.673 178.188 815.078 175.659 822.66 172.41L822.463 171.95L822.266 171.49C814.728 174.721 807.374 177.232 800.202 179.025L800.323 179.51ZM822.463 171.95H821.963V192.74H822.463H822.963V171.95H822.463ZM822.463 192.74L822.262 192.282C814.912 195.509 807.657 197.837 800.495 199.27L800.593 199.76L800.691 200.25C807.93 198.803 815.254 196.451 822.664 193.198L822.463 192.74ZM800.593 199.76L800.484 199.272C793.329 200.882 784.818 201.69 774.943 201.69V202.19V202.69C784.869 202.69 793.457 201.878 800.703 200.248L800.593 199.76ZM774.943 202.19V201.69C761.333 201.69 749.265 198.915 738.726 193.377L738.493 193.82L738.261 194.263C748.962 199.885 761.194 202.69 774.943 202.69V202.19ZM738.493 193.82L738.729 193.379C728.38 187.848 720.259 179.641 714.363 168.742L713.923 168.98L713.484 169.218C719.467 180.279 727.726 188.632 738.258 194.261L738.493 193.82ZM713.923 168.98L714.368 168.751C708.653 157.678 705.783 144.172 705.783 128.21H705.283H704.783C704.783 144.288 707.674 157.962 713.479 169.209L713.923 168.98ZM705.283 128.21H705.783C705.783 112.423 708.385 98.9084 713.568 87.6491L713.113 87.44L712.659 87.2309C707.402 98.6516 704.783 112.317 704.783 128.21H705.283ZM713.113 87.44L713.565 87.655C718.929 76.3898 726.34 67.7351 735.793 61.6708L735.523 61.25L735.253 60.8291C725.626 67.0048 718.098 75.8102 712.662 87.225L713.113 87.44ZM735.523 61.25L735.79 61.6731C745.421 55.6089 756.577 52.57 769.273 52.57V52.07V51.57C756.41 51.57 745.065 54.6511 735.257 60.8269L735.523 61.25ZM769.003 71.51V71.01C757.544 71.01 748.401 74.7446 741.632 82.245L742.003 82.58L742.375 82.915C748.926 75.6553 757.783 72.01 769.003 72.01V71.51ZM742.003 82.58L741.632 82.2455C735.059 89.5483 731.163 99.7414 729.896 112.772L730.393 112.82L730.891 112.868C732.144 99.9786 735.987 90.0117 742.375 82.9145L742.003 82.58ZM730.393 112.82V113.32H804.103V112.82V112.32H730.393V112.82ZM804.103 112.82H804.603C804.603 104.491 803.336 97.2231 800.786 91.0296L800.323 91.22L799.861 91.4104C802.351 97.4569 803.603 104.589 803.603 112.82H804.103ZM800.323 91.22L800.786 91.0296C798.23 84.8224 794.297 79.9704 788.987 76.4918L788.713 76.91L788.439 77.3282C793.57 80.6895 797.377 85.3776 799.861 91.4104L800.323 91.22ZM788.713 76.91L789.004 76.5031C783.856 72.8263 777.176 71.01 769.003 71.01V71.51V72.01C777.031 72.01 783.49 73.7936 788.423 77.3168L788.713 76.91Z" fill="black"/>
<defs>
<filter id="filter0_i_5_5" x="0" y="0" width="829.443" height="266.19" filterUnits="userSpaceOnUse" color-interpolation-filters="sRGB">
<feFlood flood-opacity="0" result="BackgroundImageFix"/>
<feBlend mode="normal" in="SourceGraphic" in2="BackgroundImageFix" result="shape"/>
<feColorMatrix in="SourceAlpha" type="matrix" values="0 0 0 0 0 0 0 0 0 0 0 0 0 0 0 0 0 0 127 0" result="hardAlpha"/>
<feOffset dy="4"/>
<feGaussianBlur stdDeviation="0.7"/>
<feComposite in2="hardAlpha" operator="arithmetic" k2="-1" k3="1"/>
<feColorMatrix type="matrix" values="0 0 0 0 0 0 0 0 0 0 0 0 0 0 0 0 0 0 1 0"/>
<feBlend mode="normal" in2="shape" result="effect1_innerShadow_5_5"/>
</filter>
</defs>
</svg>
